<svg xmlns="http://www.w3.org/2000/svg" viewBox="0 0 500 100" fill="none">
  <!-- Icon -->
  <path d="M50 20C50 20 20 20 20 50C20 80 50 80 50 80C50 80 80 80 80 50C80 20 50 20 50 20Z" fill="url(#grad1)"/>
  <path d="M50 25C50 25 30 25 30 50C30 75 50 75 50 75C50 75 70 75 70 50C70 25 50 25 50 25Z" fill="white" opacity="0.3"/>
  <path d="M50 35V65M35 50H65" stroke="white" stroke-width="4" stroke-linecap="round"/>
  
  <!-- Text -->
  <text x="100" y="65" font-family="Arial, sans-serif" font-weight="bold" font-size="48" fill="#1e293b">Lumina</text>
  <text x="280" y="65" font-family="Arial, sans-serif" font-weight="light" font-size="48" fill="#3b82f6">Dental</text>
  
  <defs>
    <linearGradient id="grad1" x1="20" y1="20" x2="80" y2="80" gradientUnits="userSpaceOnUse">
      <stop stop-color="#3b82f6"/>
      <stop offset="1" stop-color="#1d4ed8"/>
    </linearGradient>
  </defs>
</svg>
