<svg xmlns="http://www.w3.org/2000/svg" viewBox="0 0 1400 900" fill="none" stroke="currentColor">
  <defs>
    <!-- Architectural Hatching Pattern -->
    <pattern id="cad-hatch" width="10" height="10" patternUnits="userSpaceOnUse" patternTransform="rotate(45)">
      <line x1="0" y1="0" x2="0" y2="10" stroke="currentColor" stroke-width="0.75" stroke-opacity="0.35" />
    </pattern>
    <!-- Concrete Stipple / Dot Pattern -->
    <pattern id="cad-dots" width="16" height="16" patternUnits="userSpaceOnUse">
      <circle cx="4" cy="4" r="0.8" fill="currentColor" fill-opacity="0.25" />
      <circle cx="12" cy="12" r="0.8" fill="currentColor" fill-opacity="0.25" />
      <circle cx="12" cy="4" r="0.5" fill="currentColor" fill-opacity="0.15" />
      <circle cx="4" cy="12" r="0.5" fill="currentColor" fill-opacity="0.15" />
    </pattern>
  </defs>

  <!-- BACKGROUND CAD DRAFTING GRID (Subtle 40px & 120px) -->
  <g stroke="currentColor" stroke-width="0.5" stroke-opacity="0.12">
    <path d="M40 0V900 M80 0V900 M120 0V900 M160 0V900 M200 0V900 M240 0V900 M280 0V900 M320 0V900 M360 0V900 M400 0V900 M440 0V900 M480 0V900 M520 0V900 M560 0V900 M600 0V900 M640 0V900 M680 0V900 M720 0V900 M760 0V900 M800 0V900 M840 0V900 M880 0V900 M920 0V900 M960 0V900 M1000 0V900 M1040 0V900 M1080 0V900 M1120 0V900 M1160 0V900 M1200 0V900 M1240 0V900 M1280 0V900 M1320 0V900 M1360 0V900" />
    <path d="M0 40H1400 M0 80H1400 M0 120H1400 M0 160H1400 M0 200H1400 M0 240H1400 M0 280H1400 M0 320H1400 M0 360H1400 M0 400H1400 M0 440H1400 M0 480H1400 M0 520H1400 M0 560H1400 M0 600H1400 M0 640H1400 M0 680H1400 M0 720H1400 M0 760H1400 M0 800H1400 M0 840H1400 M0 880H1400" />
  </g>

  <!-- SURVEY & STRUCTURAL AXIS LINES (Centerlines: Dash-Dot) -->
  <g stroke="currentColor" stroke-width="1" stroke-dasharray="16 6 3 6" stroke-opacity="0.4">
    <!-- Vertical Axes 1 to 6 -->
    <line x1="200" y1="50" x2="200" y2="820" />
    <line x1="420" y1="50" x2="420" y2="820" />
    <line x1="680" y1="50" x2="680" y2="820" />
    <line x1="940" y1="50" x2="940" y2="820" />
    <line x1="1180" y1="50" x2="1180" y2="820" />

    <!-- Horizontal Axes A to D -->
    <line x1="120" y1="160" x2="1260" y2="160" />
    <line x1="120" y1="360" x2="1260" y2="360" />
    <line x1="120" y1="580" x2="1260" y2="580" />
    <line x1="120" y1="740" x2="1260" y2="740" />
  </g>

  <!-- AXIS BUBBLES WITH LABELS -->
  <g stroke="#EA580C" stroke-width="1.2" fill="none">
    <!-- Top Bubbles -->
    <circle cx="200" cy="50" r="16" />
    <circle cx="420" cy="50" r="16" />
    <circle cx="680" cy="50" r="16" />
    <circle cx="940" cy="50" r="16" />
    <circle cx="1180" cy="50" r="16" />

    <!-- Left Bubbles -->
    <circle cx="120" cy="160" r="16" />
    <circle cx="120" cy="360" r="16" />
    <circle cx="120" cy="580" r="16" />
    <circle cx="120" cy="740" r="16" />
  </g>

  <g fill="#EA580C" font-family="'Courier New', monospace" font-size="12" font-weight="bold" text-anchor="middle" dominant-baseline="central">
    <text x="200" y="50">1</text>
    <text x="420" y="50">2</text>
    <text x="680" y="50">3</text>
    <text x="940" y="50">4</text>
    <text x="1180" y="50">5</text>
    <text x="120" y="160">A</text>
    <text x="120" y="360">B</text>
    <text x="120" y="580">C</text>
    <text x="120" y="740">D</text>
  </g>

  <!-- MAIN EXTERIOR & LOAD BEARING WALLS (Double Line with Hatching) -->
  <g stroke="currentColor" stroke-width="2.5" stroke-opacity="0.85">
    <!-- Outer Envelope -->
    <polygon points="200,160 1180,160 1180,580 940,580 940,740 420,740 420,580 200,580" />
    <polygon points="214,174 1166,174 1166,566 926,566 926,726 434,726 434,566 214,566" stroke-width="1.2" stroke-opacity="0.6" />

    <!-- Internal Partition Walls -->
    <line x1="420" y1="174" x2="420" y2="360" stroke-width="2" />
    <line x1="432" y1="174" x2="432" y2="360" stroke-width="1.2" stroke-opacity="0.6" />

    <line x1="214" y1="360" x2="340" y2="360" stroke-width="2" />
    <line x1="214" y1="372" x2="340" y2="372" stroke-width="1.2" stroke-opacity="0.6" />

    <!-- Courtyard Wall (Perforated / Jali screens) -->
    <line x1="680" y1="174" x2="680" y2="360" stroke-width="2" />
    <line x1="692" y1="174" x2="692" y2="360" stroke-width="1.2" stroke-opacity="0.6" />

    <!-- Living & Kitchen Division -->
    <line x1="940" y1="174" x2="940" y2="400" stroke-width="2" />
    <line x1="952" y1="174" x2="952" y2="400" stroke-width="1.2" stroke-opacity="0.6" />

    <!-- South Wing Partition -->
    <line x1="680" y1="566" x2="680" y2="726" stroke-width="2" />
    <line x1="692" y1="566" x2="692" y2="726" stroke-width="1.2" stroke-opacity="0.6" />
  </g>

  <!-- REINFORCED CONCRETE COLUMNS [C1 to C12] (Solid/Hatched Rectangles at Grid Intersections) -->
  <g fill="url(#cad-hatch)" stroke="#EA580C" stroke-width="1.5">
    <rect x="192" y="152" width="16" height="16" />
    <rect x="412" y="152" width="16" height="16" />
    <rect x="672" y="152" width="16" height="16" />
    <rect x="932" y="152" width="16" height="16" />
    <rect x="1172" y="152" width="16" height="16" />

    <rect x="192" y="352" width="16" height="16" />
    <rect x="412" y="352" width="16" height="16" />
    <rect x="672" y="352" width="16" height="16" />
    <rect x="932" y="352" width="16" height="16" />
    <rect x="1172" y="352" width="16" height="16" />

    <rect x="192" y="572" width="16" height="16" />
    <rect x="412" y="572" width="16" height="16" />
    <rect x="672" y="572" width="16" height="16" />
    <rect x="932" y="572" width="16" height="16" />
    <rect x="1172" y="572" width="16" height="16" />

    <rect x="412" y="732" width="16" height="16" />
    <rect x="672" y="732" width="16" height="16" />
    <rect x="932" y="732" width="16" height="16" />
  </g>

  <!-- CANTILEVER BALCONY & PERGOLA LINES (Dashed Projection Lines) -->
  <g stroke="#EA580C" stroke-width="1" stroke-dasharray="6 4" stroke-opacity="0.7">
    <!-- Balcony Overhang North -->
    <rect x="200" y="110" width="480" height="50" />
    <line x1="200" y1="110" x2="240" y2="160" />
    <line x1="680" y1="110" x2="640" y2="160" />

    <!-- Pergola Over Courtyard -->
    <path d="M440 210H660 M440 240H660 M440 270H660 M440 300H660 M440 330H660" stroke="currentColor" stroke-dasharray="2 3" stroke-opacity="0.45" />

    <!-- Cantilever Verandah South -->
    <rect x="434" y="726" width="492" height="40" />
  </g>

  <!-- DOOR SWINGS & GLAZING SLIDERS -->
  <g stroke="currentColor" stroke-width="1.2" stroke-opacity="0.7">
    <!-- Main Entrance Double Door -->
    <line x1="340" y1="580" x2="340" y2="520" stroke="#EA580C" stroke-width="1.5" />
    <path d="M340 580 A60 60 0 0 0 400 520" stroke-dasharray="3 3" />
    
    <!-- Bedroom 1 Door -->
    <line x1="420" y1="360" x2="470" y2="360" stroke="#EA580C" />
    <path d="M420 360 A50 50 0 0 1 470 410" stroke-dasharray="3 3" />

    <!-- Courtyard Glass Sliding Door (Triple Track) -->
    <line x1="680" y1="400" x2="680" y2="540" stroke="#EA580C" stroke-width="2" />
    <line x1="686" y1="410" x2="686" y2="530" stroke="#EA580C" stroke-width="1" />
    <line x1="674" y1="410" x2="674" y2="530" stroke="#EA580C" stroke-width="1" />

    <!-- Master Suite Door -->
    <line x1="940" y1="480" x2="890" y2="480" stroke="#EA580C" />
    <path d="M940 480 A50 50 0 0 0 890 430" stroke-dasharray="3 3" />
  </g>

  <!-- STAIRCASE WITH STEP TREADS & DIRECTIONAL ARROW -->
  <g stroke="currentColor" stroke-width="1" stroke-opacity="0.6">
    <rect x="230" y="400" width="160" height="150" fill="none" stroke-width="1.5" />
    <!-- Step Treads -->
    <line x1="230" y1="415" x2="390" y2="415" />
    <line x1="230" y1="430" x2="390" y2="430" />
    <line x1="230" y1="445" x2="390" y2="445" />
    <line x1="230" y1="460" x2="390" y2="460" />
    <line x1="230" y1="475" x2="390" y2="475" />
    <line x1="230" y1="490" x2="390" y2="490" />
    <line x1="230" y1="505" x2="390" y2="505" />
    <line x1="230" y1="520" x2="390" y2="520" />
    <line x1="230" y1="535" x2="390" y2="535" />

    <!-- Center Line Cut & Arrow -->
    <line x1="310" y1="400" x2="310" y2="550" stroke-width="1.2" />
    <line x1="310" y1="550" x2="310" y2="450" stroke="#EA580C" stroke-width="2" />
    <polyline points="305,460 310,445 315,460" stroke="#EA580C" stroke-width="2" fill="none" />
    <polyline points="220,480 300,470 320,490 400,480" stroke="#EA580C" stroke-width="1.5" fill="none" />
  </g>

  <!-- COURTYARD WATER BODY & LANDSCAPING ATRIUM -->
  <g fill="none">
    <rect x="460" y="200" width="180" height="140" stroke="#EA580C" stroke-width="1.2" stroke-opacity="0.8" />
    <rect x="475" y="215" width="150" height="110" stroke="currentColor" stroke-width="0.8" stroke-dasharray="4 4" stroke-opacity="0.5" />
    <circle cx="550" cy="270" r="35" stroke="#EA580C" stroke-width="1" stroke-opacity="0.6" />
    <circle cx="550" cy="270" r="15" fill="#EA580C" fill-opacity="0.2" stroke="#EA580C" stroke-width="1.2" />
    <circle cx="550" cy="270" r="25" stroke="currentColor" stroke-dasharray="2 4" stroke-opacity="0.4" />
  </g>

  <!-- FURNITURE & SPATIAL ANCHORS (Architectural Minimalist Linework) -->
  <g stroke="currentColor" stroke-width="0.8" stroke-opacity="0.5" fill="none">
    <!-- Living Lounge L-Sofa -->
    <rect x="720" y="210" width="180" height="120" rx="4" />
    <rect x="730" y="220" width="160" height="40" rx="2" />
    <rect x="730" y="270" width="50" height="50" rx="2" />
    <rect x="790" y="275" width="80" height="45" rx="3" stroke="#EA580C" stroke-opacity="0.7" />

    <!-- Dining Table (8-Seater) -->
    <rect x="720" y="420" width="150" height="90" rx="6" stroke-width="1.2" stroke-opacity="0.7" />
    <rect x="735" y="398" width="30" height="16" rx="2" />
    <rect x="780" y="398" width="30" height="16" rx="2" />
    <rect x="825" y="398" width="30" height="16" rx="2" />
    <rect x="735" y="516" width="30" height="16" rx="2" />
    <rect x="780" y="516" width="30" height="16" rx="2" />
    <rect x="825" y="516" width="30" height="16" rx="2" />
    <rect x="700" y="445" width="16" height="40" rx="2" />
    <rect x="874" y="445" width="16" height="40" rx="2" />

    <!-- Kitchen Island & Range -->
    <rect x="980" y="200" width="150" height="60" stroke="#EA580C" stroke-opacity="0.8" stroke-width="1.2" />
    <circle cx="1015" cy="230" r="10" stroke="#EA580C" stroke-opacity="0.7" />
    <circle cx="1045" cy="230" r="10" stroke="#EA580C" stroke-opacity="0.7" />
    <circle cx="1075" cy="230" r="10" stroke="#EA580C" stroke-opacity="0.7" />
    <rect x="980" y="300" width="150" height="40" stroke-dasharray="4 3" />

    <!-- Master Bed & Side Tables -->
    <rect x="980" y="410" width="140" height="130" rx="4" stroke-width="1.2" stroke-opacity="0.7" />
    <path d="M980 440H1120 M980 500H1120" />
    <rect x="990" y="415" width="55" height="22" rx="3" stroke="#EA580C" stroke-opacity="0.6" />
    <rect x="1055" y="415" width="55" height="22" rx="3" stroke="#EA580C" stroke-opacity="0.6" />
    <rect x="955" y="410" width="20" height="30" rx="2" />
    <rect x="1125" y="410" width="20" height="30" rx="2" />
  </g>

  <!-- DIMENSION CHAINS (TOP, BOTTOM, LEFT, RIGHT) -->
  <g stroke="currentColor" stroke-width="0.9" stroke-opacity="0.75" fill="none">
    <line x1="200" y1="90" x2="1180" y2="90" />
    <line x1="200" y1="80" x2="200" y2="152" />
    <line x1="420" y1="80" x2="420" y2="152" />
    <line x1="680" y1="80" x2="680" y2="152" />
    <line x1="940" y1="80" x2="940" y2="152" />
    <line x1="1180" y1="80" x2="1180" y2="152" />

    <line x1="194" y1="96" x2="206" y2="84" stroke="#EA580C" stroke-width="2" />
    <line x1="414" y1="96" x2="426" y2="84" stroke="#EA580C" stroke-width="2" />
    <line x1="674" y1="96" x2="686" y2="84" stroke="#EA580C" stroke-width="2" />
    <line x1="934" y1="96" x2="946" y2="84" stroke="#EA580C" stroke-width="2" />
    <line x1="1174" y1="96" x2="1186" y2="84" stroke="#EA580C" stroke-width="2" />

    <line x1="200" y1="68" x2="1180" y2="68" />
    <line x1="194" y1="74" x2="206" y2="62" stroke="#EA580C" stroke-width="2" />
    <line x1="1174" y1="74" x2="1186" y2="62" stroke="#EA580C" stroke-width="2" />

    <line x1="80" y1="160" x2="80" y2="740" />
    <line x1="70" y1="160" x2="192" y2="160" />
    <line x1="70" y1="360" x2="192" y2="360" />
    <line x1="70" y1="580" x2="192" y2="580" />
    <line x1="70" y1="740" x2="412" y2="740" />

    <line x1="74" y1="166" x2="86" y2="154" stroke="#EA580C" stroke-width="2" />
    <line x1="74" y1="366" x2="86" y2="354" stroke="#EA580C" stroke-width="2" />
    <line x1="74" y1="586" x2="86" y2="574" stroke="#EA580C" stroke-width="2" />
    <line x1="74" y1="746" x2="86" y2="734" stroke="#EA580C" stroke-width="2" />
  </g>

  <!-- DIMENSION TEXT LABELS (Monospace) -->
  <g fill="currentColor" fill-opacity="0.85" font-family="'Courier New', Courier, monospace" font-size="11" font-weight="600" letter-spacing="1">
    <text x="310" y="84" text-anchor="middle">4 400</text>
    <text x="550" y="84" text-anchor="middle">5 200</text>
    <text x="810" y="84" text-anchor="middle">5 200</text>
    <text x="1060" y="84" text-anchor="middle">4 800</text>
    <text x="690" y="62" text-anchor="middle" fill="#EA580C" font-weight="bold">19 600 TOTAL PLOT SPAN</text>

    <!-- Vertical Dimensions -->
    <text x="50" y="260" text-anchor="middle" transform="rotate(-90 50 260)">4 000</text>
    <text x="50" y="470" text-anchor="middle" transform="rotate(-90 50 470)">4 400</text>
    <text x="50" y="660" text-anchor="middle" transform="rotate(-90 50 660)">3 200</text>
  </g>

  <!-- ROOM LABELS & SPECIFICATIONS -->
  <g fill="currentColor" font-family="'Work Sans', sans-serif" font-weight="bold" letter-spacing="2">
    <text x="760" y="345" font-size="12" fill="#EA580C">LIVING ATRIUM</text>
    <text x="760" y="360" font-size="9" fill="currentColor" fill-opacity="0.5">DOUBLE HEIGHT VOID</text>

    <text x="550" y="360" font-size="11" text-anchor="middle" fill="#EA580C">CENTRAL COURTYARD</text>
    <text x="550" y="375" font-size="8" text-anchor="middle" fill="currentColor" fill-opacity="0.5">MICROCLIMATE COOLING</text>

    <text x="1055" y="280" font-size="11" text-anchor="middle" fill="currentColor" fill-opacity="0.8">SHOW KITCHEN</text>

    <text x="1050" y="560" font-size="12" text-anchor="middle" fill="#EA580C">MASTER SUITE</text>
    <text x="1050" y="575" font-size="9" text-anchor="middle" fill="currentColor" fill-opacity="0.5">TEAK FLOORING &bull; PRIVATE BALCONY</text>

    <text x="550" y="640" font-size="12" text-anchor="middle" fill="currentColor" fill-opacity="0.8">FORMAL FOYER</text>
    <text x="550" y="655" font-size="9" text-anchor="middle" fill="currentColor" fill-opacity="0.5">±0.00 FINISHED PLINTH</text>
  </g>

  <!-- NORTH COMPASS ARROW -->
  <g transform="translate(1260, 160)">
    <circle cx="0" cy="0" r="38" stroke="currentColor" stroke-width="1" stroke-dasharray="3 3" stroke-opacity="0.4" fill="none" />
    <circle cx="0" cy="0" r="30" stroke="#EA580C" stroke-width="1.2" stroke-opacity="0.6" fill="none" />
    <polygon points="0,-28 7,0 0,-4" fill="#EA580C" />
    <polygon points="0,-28 -7,0 0,-4" fill="#111111" stroke="#EA580C" stroke-width="0.8" />
    <polygon points="0,28 7,0 0,4" fill="currentColor" fill-opacity="0.3" />
    <polygon points="0,28 -7,0 0,4" fill="currentColor" fill-opacity="0.6" />
    <line x1="-36" y1="0" x2="36" y2="0" stroke="currentColor" stroke-width="0.8" stroke-opacity="0.5" />
    <line x1="0" y1="-36" x2="0" y2="36" stroke="currentColor" stroke-width="0.8" stroke-opacity="0.5" />
    <text x="0" y="-42" fill="#EA580C" font-family="'Courier New', monospace" font-size="12" font-weight="bold" text-anchor="middle">N</text>
    <text x="44" y="4" fill="currentColor" fill-opacity="0.6" font-family="'Courier New', monospace" font-size="9" text-anchor="middle">E</text>
    <text x="0" y="48" fill="currentColor" fill-opacity="0.6" font-family="'Courier New', monospace" font-size="9" text-anchor="middle">S</text>
    <text x="-44" y="4" fill="currentColor" fill-opacity="0.6" font-family="'Courier New', monospace" font-size="9" text-anchor="middle">W</text>
  </g>

  <!-- AUTHENTIC ARCHITECTURAL TITLE BLOCK -->
  <g transform="translate(970, 700)" stroke="currentColor" stroke-width="1" fill="none">
    <rect x="0" y="0" width="370" height="150" stroke-width="1.5" stroke="#EA580C" />
    <line x1="0" y1="36" x2="370" y2="36" />
    <line x1="0" y1="72" x2="370" y2="72" />
    <line x1="0" y1="108" x2="370" y2="108" />
    <line x1="185" y1="72" x2="185" y2="150" />

    <text x="12" y="24" fill="#EA580C" font-family="'Lora', Georgia, serif" font-size="14" font-weight="bold" stroke="none">MURALI PATHARALA &amp; ASSOCIATES</text>
    <text x="12" y="56" fill="currentColor" font-family="'Work Sans', sans-serif" font-size="10" font-weight="600" letter-spacing="1.5" stroke="none">ARCHITECTURAL &amp; CIVIL ENGINEERING STUDIO</text>
    
    <text x="12" y="92" fill="currentColor" fill-opacity="0.5" font-family="'Courier New', monospace" font-size="9" stroke="none">DWG NO: MPA-CAD-104</text>
    <text x="12" y="132" fill="currentColor" fill-opacity="0.5" font-family="'Courier New', monospace" font-size="9" stroke="none">SCALE: 1:50 @ A1</text>
    
    <text x="197" y="92" fill="currentColor" fill-opacity="0.5" font-family="'Courier New', monospace" font-size="9" stroke="none">DATE: VERIFIED 2024</text>
    <text x="197" y="132" fill="#EA580C" font-family="'Courier New', monospace" font-size="9" font-weight="bold" stroke="none">STATUS: APPROVED</text>
  </g>

  <!-- CORNER CAD CROSSHAIR MARKS -->
  <g stroke="#EA580C" stroke-width="1.5">
    <path d="M20 30H40 M30 20V40" />
    <path d="M1360 30H1380 M1370 20V40" />
    <path d="M20 870H40 M30 860V880" />
    <path d="M1360 870H1380 M1370 860V880" />
  </g>
</svg>
